<svg xmlns="http://www.w3.org/2000/svg"  viewBox="0 0 100 100" width="200px" height="200px"><path fill="#f27c7c" d="M89,31v38c0,4.418-3.582,8-8,8H19c-4.418,0-8-3.582-8-8V31c0-4.418,3.582-8,8-8h62 C85.418,23,89,26.582,89,31z"/><path fill="#1f212b" d="M81,78H19c-4.963,0-9-4.038-9-9V31c0-4.962,4.037-9,9-9h62c4.963,0,9,4.038,9,9v38 C90,73.962,85.963,78,81,78z M19,24c-3.859,0-7,3.14-7,7v38c0,3.86,3.141,7,7,7h62c3.859,0,7-3.14,7-7V31c0-3.86-3.141-7-7-7H19z"/><path fill="#1f212b" d="M30.5,28h-1c-0.276,0-0.5-0.224-0.5-0.5s0.224-0.5,0.5-0.5h1c0.276,0,0.5,0.224,0.5,0.5 S30.776,28,30.5,28z"/><path fill="#1f212b" d="M37.5,28h-4c-0.276,0-0.5-0.224-0.5-0.5s0.224-0.5,0.5-0.5h4c0.276,0,0.5,0.224,0.5,0.5 S37.776,28,37.5,28z"/><path fill="#1f212b" d="M59.5,73h-38c-3.584,0-6.5-2.916-6.5-6.5v-13c0-0.276,0.224-0.5,0.5-0.5s0.5,0.224,0.5,0.5v13 c0,3.033,2.468,5.5,5.5,5.5h38c0.276,0,0.5,0.224,0.5,0.5S59.776,73,59.5,73z"/><path fill="#1f212b" d="M84.5,53c-0.276,0-0.5-0.224-0.5-0.5v-19c0-3.033-2.468-5.5-5.5-5.5h-38c-0.276,0-0.5-0.224-0.5-0.5 s0.224-0.5,0.5-0.5h38c3.584,0,6.5,2.916,6.5,6.5v19C85,52.776,84.776,53,84.5,53z"/><path fill="#1f212b" d="M73.5,73h-1c-0.276,0-0.5-0.224-0.5-0.5s0.224-0.5,0.5-0.5h1c0.276,0,0.5,0.224,0.5,0.5 S73.776,73,73.5,73z"/><path fill="#1f212b" d="M69.5,73h-5c-0.276,0-0.5-0.224-0.5-0.5s0.224-0.5,0.5-0.5h5c0.276,0,0.5,0.224,0.5,0.5 S69.776,73,69.5,73z"/><path fill="#1f212b" d="M38,46.741v-5.125c0-2.839,1.495-4.259,4.483-4.259c1.361,0,2.454,0.341,3.279,1.021 C46.587,39.06,47,40.139,47,41.616v5.125c0,1.478-0.413,2.557-1.238,3.238C44.937,50.66,43.844,51,42.483,51 C39.495,51,38,49.58,38,46.741z M40.384,46.683c0,1.332,0.699,1.997,2.099,1.997c1.422,0,2.132-0.665,2.132-1.997v-5.009 c0-1.331-0.711-1.997-2.132-1.997c-1.4,0-2.099,0.666-2.099,1.997V46.683z M42.587,62.713c0-0.185,0.045-0.359,0.135-0.522 l12.382-25.565C55.284,36.208,55.621,36,56.116,36c0.364,0,0.693,0.128,0.989,0.382c0.296,0.256,0.444,0.569,0.444,0.939 c0,0.186-0.034,0.372-0.101,0.557l-12.383,25.46C44.862,63.779,44.48,64,43.918,64c-0.387,0-0.706-0.134-0.956-0.4 C42.712,63.333,42.587,63.037,42.587,62.713z M53,58.629v-5.258C53,50.457,54.494,49,57.483,49c1.361,0,2.453,0.35,3.279,1.049 C61.587,50.748,62,51.855,62,53.371v5.258c0,1.517-0.413,2.624-1.238,3.323C59.936,62.65,58.844,63,57.483,63 C54.494,63,53,61.543,53,58.629z M55.384,58.58c0,1.371,0.699,2.057,2.099,2.057c1.422,0,2.132-0.685,2.132-2.057V53.42 c0-1.371-0.711-2.057-2.132-2.057c-1.4,0-2.099,0.686-2.099,2.057V58.58z"/></svg>