<svg xmlns="http://www.w3.org/2000/svg"  viewBox="0 0 64 64" width="128px" height="128px"><linearGradient id="P_rKXNwUrBCBr3nHTkiKTa" x1="37" x2="37" y1="5.5" y2="59.094" gradientUnits="userSpaceOnUse" spreadMethod="reflect"><stop offset="0" stop-color="#1A6DFF"/><stop offset="1" stop-color="#C822FF"/></linearGradient><path fill="url(#P_rKXNwUrBCBr3nHTkiKTa)" d="M51,6H23c-2.757,0-5,2.243-5,5v17h2V11c0-1.654,1.346-3,3-3h28c1.654,0,3,1.346,3,3v42 c0,1.654-1.346,3-3,3H23c-1.654,0-3-1.346-3-3V36h-2v17c0,2.757,2.243,5,5,5h28c2.757,0,5-2.243,5-5V11C56,8.243,53.757,6,51,6z"/><linearGradient id="P_rKXNwUrBCBr3nHTkiKTb" x1="37" x2="37" y1="5.5" y2="59.094" gradientUnits="userSpaceOnUse" spreadMethod="reflect"><stop offset="0" stop-color="#1A6DFF"/><stop offset="1" stop-color="#C822FF"/></linearGradient><path fill="url(#P_rKXNwUrBCBr3nHTkiKTb)" d="M22,36v16c0,1.103,0.897,2,2,2h26c1.103,0,2-0.897,2-2V12c0-1.103-0.897-2-2-2H24 c-1.103,0-2,0.897-2,2v16h2V12h26v40H24V36H22z"/><linearGradient id="P_rKXNwUrBCBr3nHTkiKTc" x1="45" x2="45" y1="5.5" y2="59.094" gradientUnits="userSpaceOnUse" spreadMethod="reflect"><stop offset="0" stop-color="#1A6DFF"/><stop offset="1" stop-color="#C822FF"/></linearGradient><path fill="url(#P_rKXNwUrBCBr3nHTkiKTc)" d="M42,38c0,1.654,1.346,3,3,3s3-1.346,3-3c0-1.302-0.839-2.401-2-2.816v-4.368 c1.161-0.415,2-1.514,2-2.816c0-1.654-1.346-3-3-3s-3,1.346-3,3c0,1.302,0.839,2.401,2,2.815v4.369C42.839,35.599,42,36.698,42,38z M45,39c-0.551,0-1-0.448-1-1s0.449-1,1-1s1,0.448,1,1S45.551,39,45,39z M45,27c0.551,0,1,0.448,1,1s-0.449,1-1,1s-1-0.448-1-1 S44.449,27,45,27z"/><linearGradient id="P_rKXNwUrBCBr3nHTkiKTd" x1="23" x2="23" y1="23.833" y2="40.218" gradientUnits="userSpaceOnUse" spreadMethod="reflect"><stop offset="0" stop-color="#8ab4ff"/><stop offset="1" stop-color="#e492ff"/></linearGradient><path fill="url(#P_rKXNwUrBCBr3nHTkiKTd)" d="M37.52,31.179l-9.845-6.011C26.959,24.73,26,25.2,26,25.988V30H9c-0.552,0-1,0.448-1,1v2 c0,0.552,0.448,1,1,1h17v4.011c0,0.788,0.959,1.258,1.675,0.821l9.845-6.012C38.16,32.43,38.16,31.57,37.52,31.179z"/></svg>